<svg xmlns="http://www.w3.org/2000/svg" xmlns:xlink="http://www.w3.org/1999/xlink" width="500" zoomAndPan="magnify" viewBox="0 0 375 374.999991" height="500" preserveAspectRatio="xMidYMid meet" version="1.0"><defs><g/><clipPath id="ab27845a7e"><path d="M 112.5 97.925781 L 262.5 97.925781 L 262.5 246.425781 L 112.5 246.425781 Z M 112.5 97.925781 " clip-rule="nonzero"/></clipPath></defs><g clip-path="url(#ab27845a7e)"><path fill="#387478" d="M 187.5 97.925781 L 262.46875 246.425781 L 229.984375 246.425781 L 201.46875 227.929688 L 186.339844 236.875 L 197.824219 216.78125 C 197.269531 210.046875 200.585938 192.652344 200.585938 192.652344 C 190.042969 189.894531 187.609375 190.558594 187.609375 190.558594 L 187.390625 162.957031 L 145.15625 246.425781 L 112.53125 246.425781 Z M 187.5 97.925781 " fill-opacity="1" fill-rule="evenodd"/></g><g fill="#243642" fill-opacity="1"><g transform="translate(120.16594, 270.085531)"><g><path d="M 15.046875 -14.65625 L 9.40625 -14.65625 L 9.40625 0 L 6 0 L 6 -14.65625 L 0.34375 -14.65625 L 0.34375 -17.65625 L 15.046875 -17.65625 Z M 15.046875 -14.65625 "/></g></g></g><g fill="#243642" fill-opacity="1"><g transform="translate(133.746729, 270.085531)"><g><path d="M 1.84375 0 L 1.84375 -17.65625 L 9.65625 -17.65625 C 10.46875 -17.65625 11.21875 -17.488281 11.90625 -17.15625 C 12.59375 -16.832031 13.1875 -16.382812 13.6875 -15.8125 C 14.195312 -15.25 14.585938 -14.617188 14.859375 -13.921875 C 15.128906 -13.234375 15.265625 -12.523438 15.265625 -11.796875 C 15.265625 -11.046875 15.132812 -10.328125 14.875 -9.640625 C 14.625 -8.953125 14.257812 -8.347656 13.78125 -7.828125 C 13.300781 -7.316406 12.738281 -6.921875 12.09375 -6.640625 L 16.125 0 L 12.34375 0 L 8.703125 -5.921875 L 5.28125 -5.921875 L 5.28125 0 Z M 5.28125 -8.9375 L 9.578125 -8.9375 C 10.003906 -8.9375 10.382812 -9.0625 10.71875 -9.3125 C 11.050781 -9.570312 11.316406 -9.914062 11.515625 -10.34375 C 11.710938 -10.78125 11.8125 -11.265625 11.8125 -11.796875 C 11.8125 -12.359375 11.695312 -12.847656 11.46875 -13.265625 C 11.238281 -13.691406 10.941406 -14.03125 10.578125 -14.28125 C 10.222656 -14.53125 9.835938 -14.65625 9.421875 -14.65625 L 5.28125 -14.65625 Z M 5.28125 -8.9375 "/></g></g></g><g fill="#243642" fill-opacity="1"><g transform="translate(148.471704, 270.085531)"><g><path d="M 6.640625 -17.65625 L 10.125 -17.65625 L 16.609375 0 L 13.078125 0 L 11.4375 -4.40625 L 5.28125 -4.40625 L 3.65625 0 L 0.125 0 Z M 10.828125 -6.8125 L 8.390625 -14.109375 L 5.84375 -6.8125 Z M 10.828125 -6.8125 "/></g></g></g><g fill="#243642" fill-opacity="1"><g transform="translate(163.370792, 270.085531)"><g><path d="M 1.84375 0 L 1.84375 -17.65625 L 5.28125 -17.65625 L 5.28125 0 Z M 1.84375 0 "/></g></g></g><g fill="#243642" fill-opacity="1"><g transform="translate(168.66868, 270.085531)"><g><path d="M 1.84375 0 L 1.84375 -17.65625 L 5.28125 -17.65625 L 5.28125 -3.015625 L 14.28125 -3.015625 L 14.28125 0 Z M 1.84375 0 "/></g></g></g><g fill="#243642" fill-opacity="1"><g transform="translate(181.378892, 270.085531)"><g/></g></g><g fill="#243642" fill-opacity="1"><g transform="translate(185.532604, 270.085531)"><g><path d="M 9.171875 0.125 C 8.035156 0.125 6.957031 -0.101562 5.9375 -0.5625 C 4.914062 -1.03125 4.019531 -1.675781 3.25 -2.5 C 2.476562 -3.320312 1.875 -4.28125 1.4375 -5.375 C 1.007812 -6.46875 0.796875 -7.65625 0.796875 -8.9375 C 0.796875 -10.144531 1.007812 -11.28125 1.4375 -12.34375 C 1.875 -13.414062 2.476562 -14.359375 3.25 -15.171875 C 4.03125 -15.984375 4.941406 -16.617188 5.984375 -17.078125 C 7.035156 -17.546875 8.175781 -17.78125 9.40625 -17.78125 C 11.0625 -17.78125 12.484375 -17.425781 13.671875 -16.71875 C 14.859375 -16.019531 15.75 -15.09375 16.34375 -13.9375 L 13.78125 -12.046875 C 13.332031 -12.921875 12.707031 -13.585938 11.90625 -14.046875 C 11.101562 -14.515625 10.226562 -14.75 9.28125 -14.75 C 8.53125 -14.75 7.847656 -14.59375 7.234375 -14.28125 C 6.617188 -13.96875 6.085938 -13.535156 5.640625 -12.984375 C 5.191406 -12.429688 4.847656 -11.800781 4.609375 -11.09375 C 4.367188 -10.382812 4.25 -9.628906 4.25 -8.828125 C 4.25 -7.984375 4.378906 -7.203125 4.640625 -6.484375 C 4.898438 -5.773438 5.265625 -5.15625 5.734375 -4.625 C 6.203125 -4.09375 6.75 -3.671875 7.375 -3.359375 C 8.007812 -3.054688 8.710938 -2.90625 9.484375 -2.90625 C 10.378906 -2.90625 11.234375 -3.132812 12.046875 -3.59375 C 12.867188 -4.0625 13.640625 -4.742188 14.359375 -5.640625 L 14.359375 -2.265625 C 12.878906 -0.671875 11.148438 0.125 9.171875 0.125 Z M 14.109375 -6.5625 L 10.546875 -6.5625 L 10.546875 -9.078125 L 16.9375 -9.078125 L 16.9375 0 L 14.109375 0 Z M 14.109375 -6.5625 "/></g></g></g><g fill="#243642" fill-opacity="1"><g transform="translate(201.749994, 270.085531)"><g><path d="M 9.328125 0.125 C 7.921875 0.125 6.722656 -0.109375 5.734375 -0.578125 C 4.742188 -1.054688 3.945312 -1.707031 3.34375 -2.53125 C 2.738281 -3.363281 2.296875 -4.304688 2.015625 -5.359375 C 1.734375 -6.410156 1.59375 -7.507812 1.59375 -8.65625 L 1.59375 -17.65625 L 5.03125 -17.65625 L 5.03125 -8.65625 C 5.03125 -7.925781 5.097656 -7.21875 5.234375 -6.53125 C 5.378906 -5.84375 5.613281 -5.222656 5.9375 -4.671875 C 6.269531 -4.128906 6.707031 -3.695312 7.25 -3.375 C 7.800781 -3.0625 8.484375 -2.90625 9.296875 -2.90625 C 10.128906 -2.90625 10.820312 -3.066406 11.375 -3.390625 C 11.9375 -3.710938 12.378906 -4.144531 12.703125 -4.6875 C 13.023438 -5.238281 13.257812 -5.859375 13.40625 -6.546875 C 13.550781 -7.242188 13.625 -7.945312 13.625 -8.65625 L 13.625 -17.65625 L 17.046875 -17.65625 L 17.046875 -8.65625 C 17.046875 -7.445312 16.898438 -6.3125 16.609375 -5.25 C 16.316406 -4.1875 15.859375 -3.253906 15.234375 -2.453125 C 14.609375 -1.648438 13.804688 -1.019531 12.828125 -0.5625 C 11.859375 -0.101562 10.691406 0.125 9.328125 0.125 Z M 9.328125 0.125 "/></g></g></g><g fill="#243642" fill-opacity="1"><g transform="translate(218.589224, 270.085531)"><g><path d="M 1.84375 0 L 1.84375 -17.65625 L 5.28125 -17.65625 L 5.28125 0 Z M 1.84375 0 "/></g></g></g><g fill="#243642" fill-opacity="1"><g transform="translate(223.887116, 270.085531)"><g><path d="M 1.84375 0 L 1.84375 -17.65625 L 8.265625 -17.65625 C 10.179688 -17.65625 11.785156 -17.257812 13.078125 -16.46875 C 14.378906 -15.6875 15.351562 -14.628906 16 -13.296875 C 16.644531 -11.960938 16.96875 -10.484375 16.96875 -8.859375 C 16.96875 -7.066406 16.609375 -5.503906 15.890625 -4.171875 C 15.179688 -2.847656 14.175781 -1.820312 12.875 -1.09375 C 11.570312 -0.363281 10.035156 0 8.265625 0 Z M 13.5 -8.859375 C 13.5 -10.003906 13.289062 -11.007812 12.875 -11.875 C 12.46875 -12.75 11.875 -13.429688 11.09375 -13.921875 C 10.3125 -14.410156 9.367188 -14.65625 8.265625 -14.65625 L 5.28125 -14.65625 L 5.28125 -3.015625 L 8.265625 -3.015625 C 9.390625 -3.015625 10.335938 -3.265625 11.109375 -3.765625 C 11.890625 -4.273438 12.484375 -4.972656 12.890625 -5.859375 C 13.296875 -6.742188 13.5 -7.742188 13.5 -8.859375 Z M 13.5 -8.859375 "/></g></g></g><g fill="#243642" fill-opacity="1"><g transform="translate(239.880645, 270.085531)"><g><path d="M 14.109375 -3.015625 L 14.109375 0 L 1.84375 0 L 1.84375 -17.65625 L 13.875 -17.65625 L 13.875 -14.65625 L 5.28125 -14.65625 L 5.28125 -10.390625 L 12.71875 -10.390625 L 12.71875 -7.609375 L 5.28125 -7.609375 L 5.28125 -3.015625 Z M 14.109375 -3.015625 "/></g></g></g><g fill="#137369" fill-opacity="0.4"><g transform="translate(88.64618, 283.927955)"><g><path d="M 2.5625 -5.890625 L 3.046875 -5.890625 L 5.5 0 L 4.890625 0 L 4.125 -1.84375 L 1.484375 -1.84375 L 0.71875 0 L 0.09375 0 Z M 3.984375 -2.296875 L 2.796875 -5.203125 L 1.59375 -2.296875 Z M 3.984375 -2.296875 "/></g></g></g><g fill="#137369" fill-opacity="0.4"><g transform="translate(98.520485, 283.927955)"><g><path d="M 0.734375 0 L 0.734375 -5.890625 L 3.234375 -5.890625 C 3.484375 -5.890625 3.710938 -5.835938 3.921875 -5.734375 C 4.128906 -5.628906 4.3125 -5.484375 4.46875 -5.296875 C 4.632812 -5.117188 4.757812 -4.921875 4.84375 -4.703125 C 4.925781 -4.484375 4.96875 -4.265625 4.96875 -4.046875 C 4.96875 -3.765625 4.910156 -3.5 4.796875 -3.25 C 4.691406 -3 4.539062 -2.785156 4.34375 -2.609375 C 4.15625 -2.441406 3.925781 -2.328125 3.65625 -2.265625 L 5.109375 0 L 4.453125 0 L 3.0625 -2.171875 L 1.3125 -2.171875 L 1.3125 0 Z M 1.3125 -2.6875 L 3.25 -2.6875 C 3.476562 -2.6875 3.675781 -2.75 3.84375 -2.875 C 4.019531 -3 4.15625 -3.164062 4.25 -3.375 C 4.34375 -3.582031 4.390625 -3.804688 4.390625 -4.046875 C 4.390625 -4.273438 4.332031 -4.488281 4.21875 -4.6875 C 4.113281 -4.894531 3.972656 -5.0625 3.796875 -5.1875 C 3.617188 -5.3125 3.414062 -5.375 3.1875 -5.375 L 1.3125 -5.375 Z M 1.3125 -2.6875 "/></g></g></g><g fill="#137369" fill-opacity="0.4"><g transform="translate(108.203942, 283.927955)"><g><path d="M 4.921875 -5.375 L 2.828125 -5.375 L 2.828125 0 L 2.234375 0 L 2.234375 -5.375 L 0.140625 -5.375 L 0.140625 -5.890625 L 4.921875 -5.890625 Z M 4.921875 -5.375 "/></g></g></g><g fill="#137369" fill-opacity="0.4"><g transform="translate(117.530594, 283.927955)"><g><path d="M 0.734375 0 L 0.734375 -5.890625 L 1.3125 -5.890625 L 1.3125 0 Z M 0.734375 0 "/></g></g></g><g fill="#137369" fill-opacity="0.4"><g transform="translate(123.853461, 283.927955)"><g><path d="M 0.734375 0 L 0.734375 -5.890625 L 4.609375 -5.890625 L 4.609375 -5.375 L 1.3125 -5.375 L 1.3125 -3.203125 L 4.09375 -3.203125 L 4.09375 -2.734375 L 1.3125 -2.734375 L 1.3125 0 Z M 0.734375 0 "/></g></g></g><g fill="#137369" fill-opacity="0.4"><g transform="translate(133.005864, 283.927955)"><g><path d="M 0.734375 0 L 0.734375 -5.890625 L 1.3125 -5.890625 L 1.3125 0 Z M 0.734375 0 "/></g></g></g><g fill="#137369" fill-opacity="0.4"><g transform="translate(139.32873, 283.927955)"><g><path d="M 0.34375 -2.984375 C 0.34375 -3.347656 0.40625 -3.703125 0.53125 -4.046875 C 0.65625 -4.390625 0.835938 -4.703125 1.078125 -4.984375 C 1.316406 -5.273438 1.609375 -5.503906 1.953125 -5.671875 C 2.304688 -5.835938 2.703125 -5.921875 3.140625 -5.921875 C 3.671875 -5.921875 4.117188 -5.800781 4.484375 -5.5625 C 4.859375 -5.320312 5.132812 -5.015625 5.3125 -4.640625 L 4.859375 -4.359375 C 4.734375 -4.617188 4.570312 -4.820312 4.375 -4.96875 C 4.1875 -5.125 3.984375 -5.234375 3.765625 -5.296875 C 3.546875 -5.367188 3.328125 -5.40625 3.109375 -5.40625 C 2.753906 -5.40625 2.441406 -5.332031 2.171875 -5.1875 C 1.898438 -5.050781 1.671875 -4.863281 1.484375 -4.625 C 1.304688 -4.382812 1.164062 -4.117188 1.0625 -3.828125 C 0.96875 -3.546875 0.921875 -3.253906 0.921875 -2.953125 C 0.921875 -2.628906 0.976562 -2.316406 1.09375 -2.015625 C 1.207031 -1.710938 1.363281 -1.445312 1.5625 -1.21875 C 1.757812 -0.988281 1.988281 -0.804688 2.25 -0.671875 C 2.519531 -0.535156 2.816406 -0.46875 3.140625 -0.46875 C 3.359375 -0.46875 3.582031 -0.503906 3.8125 -0.578125 C 4.050781 -0.660156 4.269531 -0.78125 4.46875 -0.9375 C 4.664062 -1.101562 4.828125 -1.3125 4.953125 -1.5625 L 5.4375 -1.3125 C 5.3125 -1.019531 5.117188 -0.769531 4.859375 -0.5625 C 4.609375 -0.363281 4.328125 -0.210938 4.015625 -0.109375 C 3.703125 -0.00390625 3.398438 0.046875 3.109375 0.046875 C 2.703125 0.046875 2.328125 -0.0351562 1.984375 -0.203125 C 1.648438 -0.378906 1.359375 -0.613281 1.109375 -0.90625 C 0.867188 -1.195312 0.679688 -1.523438 0.546875 -1.890625 C 0.410156 -2.253906 0.34375 -2.617188 0.34375 -2.984375 Z M 0.34375 -2.984375 "/></g></g></g><g fill="#137369" fill-opacity="0.4"><g transform="translate(149.286008, 283.927955)"><g><path d="M 0.734375 0 L 0.734375 -5.890625 L 1.3125 -5.890625 L 1.3125 0 Z M 0.734375 0 "/></g></g></g><g fill="#137369" fill-opacity="0.4"><g transform="translate(155.608874, 283.927955)"><g><path d="M 2.5625 -5.890625 L 3.046875 -5.890625 L 5.5 0 L 4.890625 0 L 4.125 -1.84375 L 1.484375 -1.84375 L 0.71875 0 L 0.09375 0 Z M 3.984375 -2.296875 L 2.796875 -5.203125 L 1.59375 -2.296875 Z M 3.984375 -2.296875 "/></g></g></g><g fill="#137369" fill-opacity="0.4"><g transform="translate(165.483179, 283.927955)"><g><path d="M 0.734375 0 L 0.734375 -5.890625 L 1.3125 -5.890625 L 1.3125 -0.515625 L 4.71875 -0.515625 L 4.71875 0 Z M 0.734375 0 "/></g></g></g><g fill="#137369" fill-opacity="0.4"><g transform="translate(174.585788, 283.927955)"><g/></g></g><g fill="#137369" fill-opacity="0.4"><g transform="translate(180.966744, 283.927955)"><g><path d="M 0.734375 0 L 0.734375 -5.890625 L 1.3125 -5.890625 L 1.3125 0 Z M 0.734375 0 "/></g></g></g><g fill="#137369" fill-opacity="0.4"><g transform="translate(187.28961, 283.927955)"><g><path d="M 1.3125 -4.828125 L 1.3125 0 L 0.734375 0 L 0.734375 -5.890625 L 1.21875 -5.890625 L 5.09375 -0.984375 L 5.09375 -5.875 L 5.671875 -5.875 L 5.671875 0 L 5.125 0 Z M 1.3125 -4.828125 "/></g></g></g><g fill="#137369" fill-opacity="0.4"><g transform="translate(197.960499, 283.927955)"><g><path d="M 4.921875 -5.375 L 2.828125 -5.375 L 2.828125 0 L 2.234375 0 L 2.234375 -5.375 L 0.140625 -5.375 L 0.140625 -5.890625 L 4.921875 -5.890625 Z M 4.921875 -5.375 "/></g></g></g><g fill="#137369" fill-opacity="0.4"><g transform="translate(207.28715, 283.927955)"><g><path d="M 4.703125 -0.515625 L 4.703125 0 L 0.734375 0 L 0.734375 -5.890625 L 4.625 -5.890625 L 4.625 -5.375 L 1.3125 -5.375 L 1.3125 -3.25 L 4.203125 -3.25 L 4.203125 -2.765625 L 1.3125 -2.765625 L 1.3125 -0.515625 Z M 4.703125 -0.515625 "/></g></g></g><g fill="#137369" fill-opacity="0.4"><g transform="translate(216.605497, 283.927955)"><g><path d="M 0.734375 0 L 0.734375 -5.890625 L 1.3125 -5.890625 L 1.3125 -0.515625 L 4.71875 -0.515625 L 4.71875 0 Z M 0.734375 0 "/></g></g></g><g fill="#137369" fill-opacity="0.4"><g transform="translate(225.708107, 283.927955)"><g><path d="M 0.734375 0 L 0.734375 -5.890625 L 1.3125 -5.890625 L 1.3125 -0.515625 L 4.71875 -0.515625 L 4.71875 0 Z M 0.734375 0 "/></g></g></g><g fill="#137369" fill-opacity="0.4"><g transform="translate(234.810716, 283.927955)"><g><path d="M 0.734375 0 L 0.734375 -5.890625 L 1.3125 -5.890625 L 1.3125 0 Z M 0.734375 0 "/></g></g></g><g fill="#137369" fill-opacity="0.4"><g transform="translate(241.133583, 283.927955)"><g><path d="M 3.109375 0.046875 C 2.710938 0.046875 2.34375 -0.0351562 2 -0.203125 C 1.664062 -0.378906 1.375 -0.609375 1.125 -0.890625 C 0.875 -1.179688 0.679688 -1.503906 0.546875 -1.859375 C 0.410156 -2.210938 0.34375 -2.578125 0.34375 -2.953125 C 0.34375 -3.347656 0.410156 -3.722656 0.546875 -4.078125 C 0.679688 -4.441406 0.867188 -4.757812 1.109375 -5.03125 C 1.359375 -5.3125 1.648438 -5.53125 1.984375 -5.6875 C 2.316406 -5.851562 2.675781 -5.9375 3.0625 -5.9375 C 3.644531 -5.9375 4.117188 -5.816406 4.484375 -5.578125 C 4.847656 -5.335938 5.125 -5.023438 5.3125 -4.640625 L 4.875 -4.34375 C 4.6875 -4.707031 4.429688 -4.972656 4.109375 -5.140625 C 3.796875 -5.316406 3.445312 -5.40625 3.0625 -5.40625 C 2.738281 -5.40625 2.441406 -5.335938 2.171875 -5.203125 C 1.910156 -5.066406 1.6875 -4.878906 1.5 -4.640625 C 1.3125 -4.410156 1.164062 -4.148438 1.0625 -3.859375 C 0.96875 -3.566406 0.921875 -3.265625 0.921875 -2.953125 C 0.921875 -2.617188 0.976562 -2.300781 1.09375 -2 C 1.207031 -1.707031 1.363281 -1.445312 1.5625 -1.21875 C 1.769531 -0.988281 2.007812 -0.804688 2.28125 -0.671875 C 2.550781 -0.546875 2.835938 -0.484375 3.140625 -0.484375 C 3.503906 -0.484375 3.84375 -0.570312 4.15625 -0.75 C 4.476562 -0.925781 4.789062 -1.203125 5.09375 -1.578125 L 5.09375 -0.96875 C 4.53125 -0.289062 3.867188 0.046875 3.109375 0.046875 Z M 5 -2.453125 L 3.6875 -2.453125 L 3.6875 -2.890625 L 5.484375 -2.890625 L 5.484375 0 L 5 0 Z M 5 -2.453125 "/></g></g></g><g fill="#137369" fill-opacity="0.4"><g transform="translate(251.339792, 283.927955)"><g><path d="M 4.703125 -0.515625 L 4.703125 0 L 0.734375 0 L 0.734375 -5.890625 L 4.625 -5.890625 L 4.625 -5.375 L 1.3125 -5.375 L 1.3125 -3.25 L 4.203125 -3.25 L 4.203125 -2.765625 L 1.3125 -2.765625 L 1.3125 -0.515625 Z M 4.703125 -0.515625 "/></g></g></g><g fill="#137369" fill-opacity="0.4"><g transform="translate(260.658139, 283.927955)"><g><path d="M 1.3125 -4.828125 L 1.3125 0 L 0.734375 0 L 0.734375 -5.890625 L 1.21875 -5.890625 L 5.09375 -0.984375 L 5.09375 -5.875 L 5.671875 -5.875 L 5.671875 0 L 5.125 0 Z M 1.3125 -4.828125 "/></g></g></g><g fill="#137369" fill-opacity="0.4"><g transform="translate(271.329028, 283.927955)"><g><path d="M 0.34375 -2.984375 C 0.34375 -3.347656 0.40625 -3.703125 0.53125 -4.046875 C 0.65625 -4.390625 0.835938 -4.703125 1.078125 -4.984375 C 1.316406 -5.273438 1.609375 -5.503906 1.953125 -5.671875 C 2.304688 -5.835938 2.703125 -5.921875 3.140625 -5.921875 C 3.671875 -5.921875 4.117188 -5.800781 4.484375 -5.5625 C 4.859375 -5.320312 5.132812 -5.015625 5.3125 -4.640625 L 4.859375 -4.359375 C 4.734375 -4.617188 4.570312 -4.820312 4.375 -4.96875 C 4.1875 -5.125 3.984375 -5.234375 3.765625 -5.296875 C 3.546875 -5.367188 3.328125 -5.40625 3.109375 -5.40625 C 2.753906 -5.40625 2.441406 -5.332031 2.171875 -5.1875 C 1.898438 -5.050781 1.671875 -4.863281 1.484375 -4.625 C 1.304688 -4.382812 1.164062 -4.117188 1.0625 -3.828125 C 0.96875 -3.546875 0.921875 -3.253906 0.921875 -2.953125 C 0.921875 -2.628906 0.976562 -2.316406 1.09375 -2.015625 C 1.207031 -1.710938 1.363281 -1.445312 1.5625 -1.21875 C 1.757812 -0.988281 1.988281 -0.804688 2.25 -0.671875 C 2.519531 -0.535156 2.816406 -0.46875 3.140625 -0.46875 C 3.359375 -0.46875 3.582031 -0.503906 3.8125 -0.578125 C 4.050781 -0.660156 4.269531 -0.78125 4.46875 -0.9375 C 4.664062 -1.101562 4.828125 -1.3125 4.953125 -1.5625 L 5.4375 -1.3125 C 5.3125 -1.019531 5.117188 -0.769531 4.859375 -0.5625 C 4.609375 -0.363281 4.328125 -0.210938 4.015625 -0.109375 C 3.703125 -0.00390625 3.398438 0.046875 3.109375 0.046875 C 2.703125 0.046875 2.328125 -0.0351562 1.984375 -0.203125 C 1.648438 -0.378906 1.359375 -0.613281 1.109375 -0.90625 C 0.867188 -1.195312 0.679688 -1.523438 0.546875 -1.890625 C 0.410156 -2.253906 0.34375 -2.617188 0.34375 -2.984375 Z M 0.34375 -2.984375 "/></g></g></g><g fill="#137369" fill-opacity="0.4"><g transform="translate(281.286306, 283.927955)"><g><path d="M 4.703125 -0.515625 L 4.703125 0 L 0.734375 0 L 0.734375 -5.890625 L 4.625 -5.890625 L 4.625 -5.375 L 1.3125 -5.375 L 1.3125 -3.25 L 4.203125 -3.25 L 4.203125 -2.765625 L 1.3125 -2.765625 L 1.3125 -0.515625 Z M 4.703125 -0.515625 "/></g></g></g><g fill="#243642" fill-opacity="1"><g transform="translate(88.64618, 283.927955)"><g><path d="M 2.5625 -5.890625 L 3.046875 -5.890625 L 5.5 0 L 4.890625 0 L 4.125 -1.84375 L 1.484375 -1.84375 L 0.71875 0 L 0.09375 0 Z M 3.984375 -2.296875 L 2.796875 -5.203125 L 1.59375 -2.296875 Z M 3.984375 -2.296875 "/></g></g></g><g fill="#243642" fill-opacity="1"><g transform="translate(98.520485, 283.927955)"><g><path d="M 0.734375 0 L 0.734375 -5.890625 L 3.234375 -5.890625 C 3.484375 -5.890625 3.710938 -5.835938 3.921875 -5.734375 C 4.128906 -5.628906 4.3125 -5.484375 4.46875 -5.296875 C 4.632812 -5.117188 4.757812 -4.921875 4.84375 -4.703125 C 4.925781 -4.484375 4.96875 -4.265625 4.96875 -4.046875 C 4.96875 -3.765625 4.910156 -3.5 4.796875 -3.25 C 4.691406 -3 4.539062 -2.785156 4.34375 -2.609375 C 4.15625 -2.441406 3.925781 -2.328125 3.65625 -2.265625 L 5.109375 0 L 4.453125 0 L 3.0625 -2.171875 L 1.3125 -2.171875 L 1.3125 0 Z M 1.3125 -2.6875 L 3.25 -2.6875 C 3.476562 -2.6875 3.675781 -2.75 3.84375 -2.875 C 4.019531 -3 4.15625 -3.164062 4.25 -3.375 C 4.34375 -3.582031 4.390625 -3.804688 4.390625 -4.046875 C 4.390625 -4.273438 4.332031 -4.488281 4.21875 -4.6875 C 4.113281 -4.894531 3.972656 -5.0625 3.796875 -5.1875 C 3.617188 -5.3125 3.414062 -5.375 3.1875 -5.375 L 1.3125 -5.375 Z M 1.3125 -2.6875 "/></g></g></g><g fill="#243642" fill-opacity="1"><g transform="translate(108.203942, 283.927955)"><g><path d="M 4.921875 -5.375 L 2.828125 -5.375 L 2.828125 0 L 2.234375 0 L 2.234375 -5.375 L 0.140625 -5.375 L 0.140625 -5.890625 L 4.921875 -5.890625 Z M 4.921875 -5.375 "/></g></g></g><g fill="#243642" fill-opacity="1"><g transform="translate(117.530594, 283.927955)"><g><path d="M 0.734375 0 L 0.734375 -5.890625 L 1.3125 -5.890625 L 1.3125 0 Z M 0.734375 0 "/></g></g></g><g fill="#243642" fill-opacity="1"><g transform="translate(123.853461, 283.927955)"><g><path d="M 0.734375 0 L 0.734375 -5.890625 L 4.609375 -5.890625 L 4.609375 -5.375 L 1.3125 -5.375 L 1.3125 -3.203125 L 4.09375 -3.203125 L 4.09375 -2.734375 L 1.3125 -2.734375 L 1.3125 0 Z M 0.734375 0 "/></g></g></g><g fill="#243642" fill-opacity="1"><g transform="translate(133.005864, 283.927955)"><g><path d="M 0.734375 0 L 0.734375 -5.890625 L 1.3125 -5.890625 L 1.3125 0 Z M 0.734375 0 "/></g></g></g><g fill="#243642" fill-opacity="1"><g transform="translate(139.32873, 283.927955)"><g><path d="M 0.34375 -2.984375 C 0.34375 -3.347656 0.40625 -3.703125 0.53125 -4.046875 C 0.65625 -4.390625 0.835938 -4.703125 1.078125 -4.984375 C 1.316406 -5.273438 1.609375 -5.503906 1.953125 -5.671875 C 2.304688 -5.835938 2.703125 -5.921875 3.140625 -5.921875 C 3.671875 -5.921875 4.117188 -5.800781 4.484375 -5.5625 C 4.859375 -5.320312 5.132812 -5.015625 5.3125 -4.640625 L 4.859375 -4.359375 C 4.734375 -4.617188 4.570312 -4.820312 4.375 -4.96875 C 4.1875 -5.125 3.984375 -5.234375 3.765625 -5.296875 C 3.546875 -5.367188 3.328125 -5.40625 3.109375 -5.40625 C 2.753906 -5.40625 2.441406 -5.332031 2.171875 -5.1875 C 1.898438 -5.050781 1.671875 -4.863281 1.484375 -4.625 C 1.304688 -4.382812 1.164062 -4.117188 1.0625 -3.828125 C 0.96875 -3.546875 0.921875 -3.253906 0.921875 -2.953125 C 0.921875 -2.628906 0.976562 -2.316406 1.09375 -2.015625 C 1.207031 -1.710938 1.363281 -1.445312 1.5625 -1.21875 C 1.757812 -0.988281 1.988281 -0.804688 2.25 -0.671875 C 2.519531 -0.535156 2.816406 -0.46875 3.140625 -0.46875 C 3.359375 -0.46875 3.582031 -0.503906 3.8125 -0.578125 C 4.050781 -0.660156 4.269531 -0.78125 4.46875 -0.9375 C 4.664062 -1.101562 4.828125 -1.3125 4.953125 -1.5625 L 5.4375 -1.3125 C 5.3125 -1.019531 5.117188 -0.769531 4.859375 -0.5625 C 4.609375 -0.363281 4.328125 -0.210938 4.015625 -0.109375 C 3.703125 -0.00390625 3.398438 0.046875 3.109375 0.046875 C 2.703125 0.046875 2.328125 -0.0351562 1.984375 -0.203125 C 1.648438 -0.378906 1.359375 -0.613281 1.109375 -0.90625 C 0.867188 -1.195312 0.679688 -1.523438 0.546875 -1.890625 C 0.410156 -2.253906 0.34375 -2.617188 0.34375 -2.984375 Z M 0.34375 -2.984375 "/></g></g></g><g fill="#243642" fill-opacity="1"><g transform="translate(149.286008, 283.927955)"><g><path d="M 0.734375 0 L 0.734375 -5.890625 L 1.3125 -5.890625 L 1.3125 0 Z M 0.734375 0 "/></g></g></g><g fill="#243642" fill-opacity="1"><g transform="translate(155.608874, 283.927955)"><g><path d="M 2.5625 -5.890625 L 3.046875 -5.890625 L 5.5 0 L 4.890625 0 L 4.125 -1.84375 L 1.484375 -1.84375 L 0.71875 0 L 0.09375 0 Z M 3.984375 -2.296875 L 2.796875 -5.203125 L 1.59375 -2.296875 Z M 3.984375 -2.296875 "/></g></g></g><g fill="#243642" fill-opacity="1"><g transform="translate(165.483179, 283.927955)"><g><path d="M 0.734375 0 L 0.734375 -5.890625 L 1.3125 -5.890625 L 1.3125 -0.515625 L 4.71875 -0.515625 L 4.71875 0 Z M 0.734375 0 "/></g></g></g><g fill="#243642" fill-opacity="1"><g transform="translate(174.585788, 283.927955)"><g/></g></g><g fill="#243642" fill-opacity="1"><g transform="translate(180.966744, 283.927955)"><g><path d="M 0.734375 0 L 0.734375 -5.890625 L 1.3125 -5.890625 L 1.3125 0 Z M 0.734375 0 "/></g></g></g><g fill="#243642" fill-opacity="1"><g transform="translate(187.28961, 283.927955)"><g><path d="M 1.3125 -4.828125 L 1.3125 0 L 0.734375 0 L 0.734375 -5.890625 L 1.21875 -5.890625 L 5.09375 -0.984375 L 5.09375 -5.875 L 5.671875 -5.875 L 5.671875 0 L 5.125 0 Z M 1.3125 -4.828125 "/></g></g></g><g fill="#243642" fill-opacity="1"><g transform="translate(197.960499, 283.927955)"><g><path d="M 4.921875 -5.375 L 2.828125 -5.375 L 2.828125 0 L 2.234375 0 L 2.234375 -5.375 L 0.140625 -5.375 L 0.140625 -5.890625 L 4.921875 -5.890625 Z M 4.921875 -5.375 "/></g></g></g><g fill="#243642" fill-opacity="1"><g transform="translate(207.28715, 283.927955)"><g><path d="M 4.703125 -0.515625 L 4.703125 0 L 0.734375 0 L 0.734375 -5.890625 L 4.625 -5.890625 L 4.625 -5.375 L 1.3125 -5.375 L 1.3125 -3.25 L 4.203125 -3.25 L 4.203125 -2.765625 L 1.3125 -2.765625 L 1.3125 -0.515625 Z M 4.703125 -0.515625 "/></g></g></g><g fill="#243642" fill-opacity="1"><g transform="translate(216.605497, 283.927955)"><g><path d="M 0.734375 0 L 0.734375 -5.890625 L 1.3125 -5.890625 L 1.3125 -0.515625 L 4.71875 -0.515625 L 4.71875 0 Z M 0.734375 0 "/></g></g></g><g fill="#243642" fill-opacity="1"><g transform="translate(225.708107, 283.927955)"><g><path d="M 0.734375 0 L 0.734375 -5.890625 L 1.3125 -5.890625 L 1.3125 -0.515625 L 4.71875 -0.515625 L 4.71875 0 Z M 0.734375 0 "/></g></g></g><g fill="#243642" fill-opacity="1"><g transform="translate(234.810716, 283.927955)"><g><path d="M 0.734375 0 L 0.734375 -5.890625 L 1.3125 -5.890625 L 1.3125 0 Z M 0.734375 0 "/></g></g></g><g fill="#243642" fill-opacity="1"><g transform="translate(241.133583, 283.927955)"><g><path d="M 3.109375 0.046875 C 2.710938 0.046875 2.34375 -0.0351562 2 -0.203125 C 1.664062 -0.378906 1.375 -0.609375 1.125 -0.890625 C 0.875 -1.179688 0.679688 -1.503906 0.546875 -1.859375 C 0.410156 -2.210938 0.34375 -2.578125 0.34375 -2.953125 C 0.34375 -3.347656 0.410156 -3.722656 0.546875 -4.078125 C 0.679688 -4.441406 0.867188 -4.757812 1.109375 -5.03125 C 1.359375 -5.3125 1.648438 -5.53125 1.984375 -5.6875 C 2.316406 -5.851562 2.675781 -5.9375 3.0625 -5.9375 C 3.644531 -5.9375 4.117188 -5.816406 4.484375 -5.578125 C 4.847656 -5.335938 5.125 -5.023438 5.3125 -4.640625 L 4.875 -4.34375 C 4.6875 -4.707031 4.429688 -4.972656 4.109375 -5.140625 C 3.796875 -5.316406 3.445312 -5.40625 3.0625 -5.40625 C 2.738281 -5.40625 2.441406 -5.335938 2.171875 -5.203125 C 1.910156 -5.066406 1.6875 -4.878906 1.5 -4.640625 C 1.3125 -4.410156 1.164062 -4.148438 1.0625 -3.859375 C 0.96875 -3.566406 0.921875 -3.265625 0.921875 -2.953125 C 0.921875 -2.617188 0.976562 -2.300781 1.09375 -2 C 1.207031 -1.707031 1.363281 -1.445312 1.5625 -1.21875 C 1.769531 -0.988281 2.007812 -0.804688 2.28125 -0.671875 C 2.550781 -0.546875 2.835938 -0.484375 3.140625 -0.484375 C 3.503906 -0.484375 3.84375 -0.570312 4.15625 -0.75 C 4.476562 -0.925781 4.789062 -1.203125 5.09375 -1.578125 L 5.09375 -0.96875 C 4.53125 -0.289062 3.867188 0.046875 3.109375 0.046875 Z M 5 -2.453125 L 3.6875 -2.453125 L 3.6875 -2.890625 L 5.484375 -2.890625 L 5.484375 0 L 5 0 Z M 5 -2.453125 "/></g></g></g><g fill="#243642" fill-opacity="1"><g transform="translate(251.339792, 283.927955)"><g><path d="M 4.703125 -0.515625 L 4.703125 0 L 0.734375 0 L 0.734375 -5.890625 L 4.625 -5.890625 L 4.625 -5.375 L 1.3125 -5.375 L 1.3125 -3.25 L 4.203125 -3.25 L 4.203125 -2.765625 L 1.3125 -2.765625 L 1.3125 -0.515625 Z M 4.703125 -0.515625 "/></g></g></g><g fill="#243642" fill-opacity="1"><g transform="translate(260.658139, 283.927955)"><g><path d="M 1.3125 -4.828125 L 1.3125 0 L 0.734375 0 L 0.734375 -5.890625 L 1.21875 -5.890625 L 5.09375 -0.984375 L 5.09375 -5.875 L 5.671875 -5.875 L 5.671875 0 L 5.125 0 Z M 1.3125 -4.828125 "/></g></g></g><g fill="#243642" fill-opacity="1"><g transform="translate(271.329028, 283.927955)"><g><path d="M 0.34375 -2.984375 C 0.34375 -3.347656 0.40625 -3.703125 0.53125 -4.046875 C 0.65625 -4.390625 0.835938 -4.703125 1.078125 -4.984375 C 1.316406 -5.273438 1.609375 -5.503906 1.953125 -5.671875 C 2.304688 -5.835938 2.703125 -5.921875 3.140625 -5.921875 C 3.671875 -5.921875 4.117188 -5.800781 4.484375 -5.5625 C 4.859375 -5.320312 5.132812 -5.015625 5.3125 -4.640625 L 4.859375 -4.359375 C 4.734375 -4.617188 4.570312 -4.820312 4.375 -4.96875 C 4.1875 -5.125 3.984375 -5.234375 3.765625 -5.296875 C 3.546875 -5.367188 3.328125 -5.40625 3.109375 -5.40625 C 2.753906 -5.40625 2.441406 -5.332031 2.171875 -5.1875 C 1.898438 -5.050781 1.671875 -4.863281 1.484375 -4.625 C 1.304688 -4.382812 1.164062 -4.117188 1.0625 -3.828125 C 0.96875 -3.546875 0.921875 -3.253906 0.921875 -2.953125 C 0.921875 -2.628906 0.976562 -2.316406 1.09375 -2.015625 C 1.207031 -1.710938 1.363281 -1.445312 1.5625 -1.21875 C 1.757812 -0.988281 1.988281 -0.804688 2.25 -0.671875 C 2.519531 -0.535156 2.816406 -0.46875 3.140625 -0.46875 C 3.359375 -0.46875 3.582031 -0.503906 3.8125 -0.578125 C 4.050781 -0.660156 4.269531 -0.78125 4.46875 -0.9375 C 4.664062 -1.101562 4.828125 -1.3125 4.953125 -1.5625 L 5.4375 -1.3125 C 5.3125 -1.019531 5.117188 -0.769531 4.859375 -0.5625 C 4.609375 -0.363281 4.328125 -0.210938 4.015625 -0.109375 C 3.703125 -0.00390625 3.398438 0.046875 3.109375 0.046875 C 2.703125 0.046875 2.328125 -0.0351562 1.984375 -0.203125 C 1.648438 -0.378906 1.359375 -0.613281 1.109375 -0.90625 C 0.867188 -1.195312 0.679688 -1.523438 0.546875 -1.890625 C 0.410156 -2.253906 0.34375 -2.617188 0.34375 -2.984375 Z M 0.34375 -2.984375 "/></g></g></g><g fill="#243642" fill-opacity="1"><g transform="translate(281.286306, 283.927955)"><g><path d="M 4.703125 -0.515625 L 4.703125 0 L 0.734375 0 L 0.734375 -5.890625 L 4.625 -5.890625 L 4.625 -5.375 L 1.3125 -5.375 L 1.3125 -3.25 L 4.203125 -3.25 L 4.203125 -2.765625 L 1.3125 -2.765625 L 1.3125 -0.515625 Z M 4.703125 -0.515625 "/></g></g></g></svg>